# xmcd
#
# Track frame offsets:
#	182
#	16445
#	32435
#	50710
#	66127
#	82290
#	107917
#	121462
#	132767
#	147357
#	169707
#
# Disc length: 2477 seconds
#
# Revision: 0
# Processed by: cddbd v1.5.2PL0 Copyright (c) Steve Scherf et al.
# Submitted via: EZCDAudioConverter 1.0.4.1
#
DISCID=9c09ab0b
DTITLE=Pavel Vítek - Šťastná hvězda
DYEAR=1995
DGENRE=
TTITLE0=Nebe plný hvězd
TTITLE1=Je s tebou ámen
TTITLE2=Přísahám
TTITLE3=Láska
TTITLE4=Tancuj dál
TTITLE5=Život jde dál
TTITLE6=Hej, klid si dej
TTITLE7=Stevenův monolog(Drákula)
TTITLE8=Rozjeď to na plnej plyn
TTITLE9=Ticho
TTITLE10=Nech mý písně znít
EXTD=
EXTT0=
EXTT1=
EXTT2=
EXTT3=
EXTT4=
EXTT5=
EXTT6=
EXTT7=
EXTT8=
EXTT9=
EXTT10=
PLAYORDER=
